/* XPM */
static const char * script_lightning_16_xpm[] = {
"16 16 178 2",
"  	c None",
". 	c #5FACE2",
"+ 	c #81BCEA",
"@ 	c #77B7E8",
"# 	c #6DB2E6",
"$ 	c #68B0E4",
"% 	c #8CC0EA",
"& 	c #FFFFFF",
"* 	c #F4F9FD",
"= 	c #EAF3FB",
"- 	c #D9EBF8",
"; 	c #D3E6F8",
"> 	c #C6DFF5",
", 	c #A6CBE9",
"' 	c #5DA8DE",
") 	c #5BA4DA",
"! 	c #9AC6EB",
"~ 	c #E2EFFC",
"{ 	c #E7F0FD",
"] 	c #EBF1FD",
"^ 	c #EEF5FD",
"/ 	c #F1F8FD",
"( 	c #F7FAFD",
"_ 	c #FAFCFF",
": 	c #F7FBFE",
"< 	c #C0DAF4",
"[ 	c #91B29C",
"} 	c #E0CD5B",
"| 	c #EDD25A",
"1 	c #E6CC58",
"2 	c #E5C956",
"3 	c #E4C654",
"4 	c #E3C34F",
"5 	c #E3C35A",
"6 	c #E4EAE6",
"7 	c #E4F0FC",
"8 	c #70A0E0",
"9 	c #F9FBFF",
"0 	c #87B8DF",
"a 	c #BCBD6C",
"b 	c #F3DE74",
"c 	c #F6E389",
"d 	c #F5DE85",
"e 	c #F4D981",
"f 	c #F1D378",
"g 	c #E8C250",
"h 	c #D9D5B0",
"i 	c #D8E9FA",
"j 	c #DBEAFC",
"k 	c #FDFFFF",
"l 	c #719DD2",
"m 	c #C1D9EE",
"n 	c #559AD0",
"o 	c #E4C743",
"p 	c #F8E793",
"q 	c #F4D85F",
"r 	c #F6E090",
"s 	c #F2D67D",
"t 	c #E9C352",
"u 	c #D1CEAA",
"v 	c #CAE2FA",
"w 	c #CDE2FA",
"x 	c #D0E5FA",
"y 	c #FDFEFF",
"z 	c #5A8FCB",
"A 	c #5294CA",
"B 	c #EAC93D",
"C 	c #F1D96B",
"D 	c #F8E796",
"E 	c #F2CF47",
"F 	c #F4DC89",
"G 	c #E1B738",
"H 	c #CDCAA3",
"I 	c #C1DDFA",
"J 	c #C4DDF9",
"K 	c #C8E1FB",
"L 	c #FBFDFF",
"M 	c #5794C8",
"N 	c #E8C53A",
"O 	c #F8E690",
"P 	c #F7E38D",
"Q 	c #F2D260",
"R 	c #F4D784",
"S 	c #DEB53B",
"T 	c #D1C185",
"U 	c #D0C18A",
"V 	c #D0BD82",
"W 	c #CEBE8F",
"X 	c #CAD7E1",
"Y 	c #538DC1",
"Z 	c #F0D86E",
"` 	c #EFD368",
" .	c #EDCF66",
"..	c #F3D984",
"+.	c #F4D788",
"@.	c #F1CF7D",
"#.	c #E8BC58",
"$.	c #E5B752",
"%.	c #D79D22",
"&.	c #C9C0A3",
"*.	c #CBDEF1",
"=.	c #F5F9FC",
"-.	c #4782B7",
";.	c #D6B740",
">.	c #9FA172",
",.	c #ECD58C",
"'.	c #DDB53D",
").	c #F0D07D",
"!.	c #ECC76D",
"~.	c #E2B244",
"{.	c #CFB471",
"].	c #C4D3DB",
"^.	c #C3DDFA",
"/.	c #D4E7FB",
"(.	c #E2EDF5",
"_.	c #437BB1",
":.	c #5686B7",
"<.	c #FBFAF2",
"[.	c #DDAE31",
"}.	c #E6BA51",
"|.	c #D7A93A",
"1.	c #C9C3A7",
"2.	c #C1DDF9",
"3.	c #C0DBFA",
"4.	c #C3DCFA",
"5.	c #DEEBFD",
"6.	c #CDDCEC",
"7.	c #4075AA",
"8.	c #3C6FA4",
"9.	c #8CAED5",
"0.	c #DFBD60",
"a.	c #E3B543",
"b.	c #CBB16A",
"c.	c #B7D1EB",
"d.	c #BDDAF8",
"e.	c #C2DEF8",
"f.	c #C6E1FA",
"g.	c #CCE4FA",
"h.	c #ECF5FD",
"i.	c #BACEE2",
"j.	c #39699E",
"k.	c #7F908C",
"l.	c #CFA63C",
"m.	c #919F9F",
"n.	c #6A9BD7",
"o.	c #6396D8",
"p.	c #5D92D6",
"q.	c #598FD4",
"r.	c #578ED3",
"s.	c #699DE2",
"t.	c #D1E3FA",
"u.	c #A2BBD8",
"v.	c #366499",
"w.	c #85A4C7",
"x.	c #F9EFD8",
"y.	c #F8EFD9",
"z.	c #FCFEFF",
"A.	c #F1F7FE",
"B.	c #F1F6FE",
"C.	c #86AEE4",
"D.	c #DBE8FA",
"E.	c #95AFCE",
"F.	c #6D90B8",
"G.	c #A3BAD6",
"H.	c #B3C6DF",
"I.	c #C3D4E7",
"J.	c #D3DFEE",
"K.	c #E2EAF5",
"L.	c #EFF4FB",
"M.	c #F6FAFD",
"N.	c #DFEBFB",
"O.	c #E6EFFB",
"P.	c #809DC1",
"Q.	c #315B90",
"R.	c #396195",
"S.	c #41699A",
"T.	c #4F74A3",
"U.	c #5F82AD",
"      . + @ # $ . . . . . .     ",
"      % & & & & * = - ; > , '   ",
"    ) ! & ~ { ] ^ / ( _ & : < ) ",
"    [ } | 1 2 3 4 5 6 7 & 8 9 0 ",
"    a b c d e f g h i j k l m n ",
"    o p q r s t u v w x y z A   ",
"  B C D E F G H I I J K L M     ",
"  N O P Q R S T U V W X _ Y     ",
"N Z `  ...+.@.#.$.%.&.*.=.-.    ",
"  ;.>.,.'.).!.~.{.].^./.(._.    ",
"    :.<.[.}.|.1.2.3.4.5.6.7.    ",
"  8.9.0.a.b.c.d.e.f.g.h.i.8.    ",
"  j.k.l.m.n.o.p.q.r.s.t.u.j.    ",
"v.w.x.y.& & z.: A.B.C.D.E.v.    ",
"  F.G.H.I.J.K.L.M.y N.O.P.      ",
"  Q.Q.Q.Q.Q.Q.Q.R.S.T.U.Q.      "};
