/* XPM */
static const char * script_lightning_24_xpm[] = {
"32 32 328 2",
"  	c None",
". 	c #127CB2",
"+ 	c #0B7CB5",
"@ 	c #087AB4",
"# 	c #077AB4",
"$ 	c #0A7CB5",
"% 	c #0F7EB6",
"& 	c #1682B8",
"* 	c #0F7BB0",
"= 	c #6FB2D4",
"- 	c #FFFFFF",
"; 	c #F3F9FB",
"> 	c #52A2CA",
", 	c #117FB7",
"' 	c #4EA0C9",
") 	c #278BBE",
"! 	c #F0F7FB",
"~ 	c #B4D7E8",
"{ 	c #137AAF",
"] 	c #0E76AB",
"^ 	c #B2D6E7",
"/ 	c #FBFDFD",
"( 	c #F9FCFD",
"_ 	c #FAFCFD",
": 	c #FBFCFD",
"< 	c #CDE4F0",
"[ 	c #3D97C4",
"} 	c #DAEDF3",
"| 	c #D2E9F1",
"1 	c #1380B7",
"2 	c #0779B3",
"3 	c #FBFEFE",
"4 	c #F6FAFC",
"5 	c #F6FBFC",
"6 	c #F7FCFC",
"7 	c #8CC1DC",
"8 	c #2088BC",
"9 	c #3D98C4",
"0 	c #419AC5",
"a 	c #1783B9",
"b 	c #4C9FC8",
"c 	c #F5FAFC",
"d 	c #F5FAFB",
"e 	c #489DC7",
"f 	c #4A9EC8",
"g 	c #F0F8FA",
"h 	c #EFF7FA",
"i 	c #F0F7FA",
"j 	c #F2F8FA",
"k 	c #3A97C5",
"l 	c #8DC2DC",
"m 	c #EDF5F9",
"n 	c #ECF5F9",
"o 	c #ECF5FA",
"p 	c #ECF6FB",
"q 	c #ECF6FC",
"r 	c #F5FBFF",
"s 	c #0079B9",
"t 	c #0E70A0",
"u 	c #9FCCE2",
"v 	c #E9F4F8",
"w 	c #E9F5FA",
"x 	c #E9F7FE",
"y 	c #EAFAFF",
"z 	c #EAFCFF",
"A 	c #E9FCFF",
"B 	c #F7FFFF",
"C 	c #DCF5FF",
"D 	c #0074BC",
"E 	c #0D77AB",
"F 	c #D2E6F1",
"G 	c #F5FBFD",
"H 	c #E5F2F7",
"I 	c #E6F2F7",
"J 	c #E6F2F8",
"K 	c #E6F5FC",
"L 	c #E2DDD0",
"M 	c #D88C34",
"N 	c #D78E3A",
"O 	c #D78E3C",
"P 	c #D78E3E",
"Q 	c #D68E3E",
"R 	c #D88F3D",
"S 	c #DD923E",
"T 	c #E39845",
"U 	c #E09D4E",
"V 	c #DD9E53",
"W 	c #0A76AC",
"X 	c #E3F1F7",
"Y 	c #E2F0F6",
"Z 	c #E3F0F7",
"` 	c #E3F4FE",
" .	c #DDC9AA",
"..	c #EBC17C",
"+.	c #FFFAD7",
"@.	c #F9E592",
"#.	c #F9E695",
"$.	c #FCECA5",
"%.	c #FAEBAF",
"&.	c #D9994D",
"*.	c #087BB4",
"=.	c #E2F1F7",
"-.	c #DFEFF5",
";.	c #DFF0F7",
">.	c #DFF4FF",
",.	c #D8B382",
"'.	c #F3D89A",
").	c #F9E69F",
"!.	c #F1CA41",
"~.	c #F1CB45",
"{.	c #F1CB44",
"].	c #F1CD48",
"^.	c #FEFADD",
"/.	c #E2AE50",
"(.	c #C98F48",
"_.	c #1581B9",
":.	c #DCEDF4",
"<.	c #DCEEF6",
"[.	c #DCF3FF",
"}.	c #D69D59",
"|.	c #FAEFBE",
"1.	c #F4D86F",
"2.	c #F1CF4C",
"3.	c #F1CF4F",
"4.	c #F1CE4C",
"5.	c #F8E69D",
"6.	c #F3D97B",
"7.	c #D59448",
"8.	c #479DC8",
"9.	c #D7EBF3",
"0.	c #D8EBF3",
"a.	c #D9EDF6",
"b.	c #D8F2FF",
"c.	c #D89132",
"d.	c #FEF5CC",
"e.	c #F2D04D",
"f.	c #F2D154",
"g.	c #F2D255",
"h.	c #F3D45C",
"i.	c #FAEDA9",
"j.	c #E2AC48",
"k.	c #BC8440",
"l.	c #12709E",
"m.	c #59A6CC",
"n.	c #D4EAF2",
"o.	c #D5EAF2",
"p.	c #D5EAF3",
"q.	c #D5EDF8",
"r.	c #D4D6CD",
"s.	c #DDA14C",
"t.	c #FBEDAE",
"u.	c #F3D356",
"v.	c #F3D45A",
"w.	c #F7DF7E",
"x.	c #F4D666",
"y.	c #C8924D",
"z.	c #106F9E",
"A.	c #8BC1DB",
"B.	c #FAFDFE",
"C.	c #D1E8F1",
"D.	c #D2E8F1",
"E.	c #D2E9F2",
"F.	c #D2ECFA",
"G.	c #D2C2A5",
"H.	c #E7B862",
"I.	c #F9E58B",
"J.	c #F4D55D",
"K.	c #F4D660",
"L.	c #F5D763",
"M.	c #F8E076",
"N.	c #E0A74A",
"O.	c #7A806D",
"P.	c #107AAF",
"Q.	c #9FCBE2",
"R.	c #F4FAFB",
"S.	c #CEE5F0",
"T.	c #CFE6F0",
"U.	c #CFE7F2",
"V.	c #CEEBFB",
"W.	c #D1AD7D",
"X.	c #EFCB75",
"Y.	c #F8E07A",
"Z.	c #F5D964",
"`.	c #F5D965",
" +	c #F6DB65",
".+	c #E2B250",
"++	c #D08A3C",
"@+	c #D38E3D",
"#+	c #D28F3F",
"$+	c #D28F40",
"%+	c #D29242",
"&+	c #D49545",
"*+	c #D59747",
"=+	c #0E7AB0",
"-+	c #D0E6F1",
";+	c #E2F1F6",
">+	c #C9E4EF",
",+	c #CBE5EF",
"'+	c #CBE6F1",
")+	c #C9EBFD",
"!+	c #D19953",
"~+	c #F6DC7F",
"{+	c #F7DD70",
"]+	c #F6DC6C",
"^+	c #F6DC6A",
"/+	c #FBEB9F",
"(+	c #FCED9F",
"_+	c #FDEE9F",
":+	c #FEEFA0",
"<+	c #FFF1A2",
"[+	c #FDF0A3",
"}+	c #DBA34A",
"|+	c #C58A3F",
"1+	c #0C7DB5",
"2+	c #DBEDF4",
"3+	c #C7E2EE",
"4+	c #C8E3EE",
"5+	c #C8E4F0",
"6+	c #C6E9FE",
"7+	c #D38529",
"8+	c #FDE97E",
"9+	c #FBE373",
"0+	c #FAE273",
"a+	c #F9E172",
"b+	c #F8DE6E",
"c+	c #F7DD6D",
"d+	c #F7DD6E",
"e+	c #F9E070",
"f+	c #F8DF70",
"g+	c #D89D46",
"h+	c #B67E37",
"i+	c #CAE5EF",
"j+	c #C7E2ED",
"k+	c #C8E2EE",
"l+	c #C7E3F0",
"m+	c #C7E7FA",
"n+	c #D78520",
"o+	c #DF9F38",
"p+	c #DC9D3C",
"q+	c #DA9E3F",
"r+	c #D79B3F",
"s+	c #FDF1B6",
"t+	c #F8E487",
"u+	c #F7E075",
"v+	c #F9E378",
"w+	c #F9E277",
"x+	c #D79C45",
"y+	c #B57E36",
"z+	c #0C7CB5",
"A+	c #CCE6EF",
"B+	c #CFE7F0",
"C+	c #CFE8F1",
"D+	c #CFE9F5",
"E+	c #CEECFC",
"F+	c #CAECFF",
"G+	c #C2EBFF",
"H+	c #C4C5B7",
"I+	c #DCA241",
"J+	c #FFFDE6",
"K+	c #F8E177",
"L+	c #FAE57E",
"M+	c #F4D874",
"N+	c #D49741",
"O+	c #885E28",
"P+	c #1984B9",
"Q+	c #0F7FB6",
"R+	c #0378B2",
"S+	c #0073B0",
"T+	c #0071AF",
"U+	c #0072AF",
"V+	c #0072B0",
"W+	c #0074B2",
"X+	c #057BB9",
"Y+	c #C6EAFF",
"Z+	c #CD9C5A",
"`+	c #EDC971",
" @	c #FEF0A8",
".@	c #FCE981",
"+@	c #F5DA78",
"@@	c #D0903B",
"#@	c #8A5F27",
"$@	c #117FB6",
"%@	c #4FA3CF",
"&@	c #9EC8D8",
"*@	c #D38421",
"=@	c #FFF1AE",
"-@	c #FFED8C",
";@	c #F8DD79",
">@	c #D38F37",
",@	c #8B5F25",
"'@	c #1173A3",
")@	c #A1CCE2",
"!@	c #EEF7FA",
"~@	c #E5F3F8",
"{@	c #E4F2F7",
"]@	c #ACD8F1",
"^@	c #6F8575",
"/@	c #DB9939",
"(@	c #FFF8A7",
"_@	c #FCDF7C",
":@	c #CA8E3B",
"<@	c #1B85B9",
"[@	c #A9D3E5",
"}@	c #D6EAF2",
"|@	c #D4E9F2",
"1@	c #D3E9F1",
"2@	c #D3E9F2",
"3@	c #D3EAF5",
"4@	c #D0EFFF",
"5@	c #D6933D",
"6@	c #F0C96F",
"7@	c #FFE688",
"8@	c #CE8E35",
"9@	c #33748E",
"0@	c #0D7EB6",
"a@	c #0D7DB6",
"b@	c #0C7DB7",
"c@	c #047EBD",
"d@	c #32819F",
"e@	c #D58A26",
"f@	c #E5B75A",
"g@	c #BA8F47",
"h@	c #3F6972",
"i@	c #A87F3A",
"j@	c #D48D2E",
"k@	c #C8872D",
"l@	c #D68D2A",
"m@	c #CA8A2F",
"                                                                ",
"                  . + @ # # # # # # # # # # # # # @ $ % &       ",
"                * = - - - - - - - - - - - - - - - - - ; > ,     ",
"                ' - - - - - - - - - - - - - - - - - - ) ! ~ {   ",
"              ] ^ - / ( ( ( ( ( ( ( ( ( ( ( ( _ : - < [ } | 1   ",
"              2 - 3 4 4 4 4 5 5 5 5 5 5 5 5 5 5 6 - 7 8 9 0 a   ",
"              b - c ; ; ; ; ; ; ; ; ; ; ; ; ; ; d - e           ",
"              f - g h h i i i i i i i i i i i i j - k           ",
"              l - m n n n n n n n n o p q q q q r - s           ",
"            t u - v v v v v v v v w x y z z z A B C D           ",
"            E F G H H H I I I I J K L M N O P Q R S T U V       ",
"            W X h Y Y Y Y Y Y Y Z `  ...+.@.#.#.@.$.%.&.        ",
"            *.- =.-.-.-.-.-.-.-.;.>.,.'.).!.~.{.].^./.(.        ",
"            _.- :.:.:.:.:.:.:.:.<.[.}.|.1.2.3.4.5.6.7.          ",
"            8.- 9.9.0.0.0.0.0.0.a.b.c.d.e.f.g.h.i.j.k.          ",
"          l.m.- n.o.o.o.o.o.o.p.q.r.s.t.u.v.v.w.x.y.            ",
"          z.A.B.C.D.D.D.D.D.D.E.F.G.H.I.J.K.L.M.N.O.            ",
"          P.Q.R.S.T.T.T.T.T.T.U.V.W.X.Y.Z.`. +.+++@+#+$+%+&+*+  ",
"          =+-+;+>+,+,+,+,+,+,+'+)+!+~+{+]+]+^+/+(+_+:+<+[+}+|+  ",
"          1+Z 2+3+4+4+4+4+4+4+5+6+7+8+9+0+a+b+c+d+b+e+f+g+h+    ",
"          + - i+j+k+k+k+k+k+k+l+m+n+o+p+q+r+s+t+u+v+w+x+y+      ",
"          z+- A+B+B+B+B+B+B+B+C+D+E+F+G+H+I+J+K+L+M+N+O+        ",
"  P+Q+$ @ R+S+T+U+U+U+U+U+U+U+U+V+W+X+Y+Z+`+ @.@+@@@#@          ",
"  $@- - - - - - - - - - - - - - - - %@&@*@=@-@;@>@,@            ",
"  '@)@!@~@X X X X X X X X X X X {@w ]@^@/@(@_@:@                ",
"    <@[@}@|@1@1@1@1@1@1@1@1@1@1@2@3@4@5@6@7@8@9@                ",
"      1 % 0@a@a@a@a@a@a@a@a@a@a@b@c@d@e@f@g@h@                  ",
"                                    i@j@k@                      ",
"                                    l@m@                        ",
"                                                                ",
"                                                                ",
"                                                                "};
