/* XPM */
static const char * script_gear_24_xpm[] = {
"32 32 297 2",
"  	c None",
". 	c #127CB2",
"+ 	c #0B7CB5",
"@ 	c #087AB4",
"# 	c #077AB4",
"$ 	c #0A7CB5",
"% 	c #0F7EB6",
"& 	c #1682B8",
"* 	c #0F7BB0",
"= 	c #6FB2D4",
"- 	c #FFFFFF",
"; 	c #F3F9FB",
"> 	c #52A2CA",
", 	c #117FB7",
"' 	c #4EA0C9",
") 	c #278BBE",
"! 	c #F0F7FB",
"~ 	c #B4D7E8",
"{ 	c #137AAF",
"] 	c #0E76AB",
"^ 	c #B2D6E7",
"/ 	c #FBFDFD",
"( 	c #F9FCFD",
"_ 	c #FAFCFD",
": 	c #FBFCFD",
"< 	c #CDE4F0",
"[ 	c #3D97C4",
"} 	c #DAEDF3",
"| 	c #D2E9F1",
"1 	c #1380B7",
"2 	c #0779B3",
"3 	c #FBFEFE",
"4 	c #F6FAFC",
"5 	c #F6FBFC",
"6 	c #F7FCFC",
"7 	c #8BC1DC",
"8 	c #1F87BB",
"9 	c #3D97C3",
"0 	c #419AC4",
"a 	c #1783B9",
"b 	c #4C9FC8",
"c 	c #F5FAFC",
"d 	c #F5FAFB",
"e 	c #479CC7",
"f 	c #4A9EC8",
"g 	c #F0F8FA",
"h 	c #EFF7FA",
"i 	c #F0F7FA",
"j 	c #F2F8FA",
"k 	c #3996C3",
"l 	c #8DC2DC",
"m 	c #EDF5F9",
"n 	c #ECF5F9",
"o 	c #EBF5F9",
"p 	c #0679B3",
"q 	c #0E70A0",
"r 	c #9FCCE2",
"s 	c #E9F4F8",
"t 	c #F7FBFD",
"u 	c #E5F1F7",
"v 	c #0A78AF",
"w 	c #0D77AB",
"x 	c #D2E6F1",
"y 	c #F5FBFD",
"z 	c #E5F2F7",
"A 	c #E6F2F7",
"B 	c #FCFEFE",
"C 	c #C4E0ED",
"D 	c #0D77AC",
"E 	c #0A76AC",
"F 	c #E3F1F7",
"G 	c #E2F0F6",
"H 	c #E3F0F6",
"I 	c #90C4DD",
"J 	c #0E6996",
"K 	c #087BB4",
"L 	c #E2F1F7",
"M 	c #DFEFF5",
"N 	c #DEEFF5",
"O 	c #5CA8CD",
"P 	c #116894",
"Q 	c #1581B9",
"R 	c #DCEDF4",
"S 	c #DCEDF5",
"T 	c #DCEEF5",
"U 	c #3B97C5",
"V 	c #479DC8",
"W 	c #D7EBF3",
"X 	c #D8EBF3",
"Y 	c #D9EBF3",
"Z 	c #D9EBF4",
"` 	c #DAECF4",
" .	c #DBEDF5",
"..	c #DCF0F8",
"+.	c #EAF8FE",
"@.	c #017BB8",
"#.	c #12709E",
"$.	c #59A6CC",
"%.	c #D4EAF2",
"&.	c #D5EAF2",
"*.	c #D7ECF4",
"=.	c #D9EFF7",
"-.	c #DBF0F8",
";.	c #DCF2FA",
">.	c #A4ACB1",
",.	c #838386",
"'.	c #8A8788",
").	c #5D89A0",
"!.	c #106F9E",
"~.	c #8BC1DB",
"{.	c #FAFDFE",
"].	c #D1E8F1",
"^.	c #D2E8F1",
"/.	c #D4EAF3",
"(.	c #D7EFF9",
"_.	c #A1AAAF",
":.	c #919498",
"<.	c #818184",
"[.	c #F0F0F1",
"}.	c #F3F2F2",
"|.	c #8A898B",
"1.	c #8C8D90",
"2.	c #8A8C8F",
"3.	c #107AAF",
"4.	c #9FCBE2",
"5.	c #F4FAFB",
"6.	c #CEE5F0",
"7.	c #CFE6F0",
"8.	c #D0E6F1",
"9.	c #D2EBF5",
"0.	c #9FA7AC",
"a.	c #AAAAAB",
"b.	c #B7B8B9",
"c.	c #7E7F81",
"d.	c #A1A1A4",
"e.	c #D3D5D7",
"f.	c #D4D6D8",
"g.	c #A3A3A7",
"h.	c #828486",
"i.	c #BBBDBF",
"j.	c #B1B3B4",
"k.	c #848688",
"l.	c #0E7AB0",
"m.	c #E2F1F6",
"n.	c #C9E4EF",
"o.	c #CBE5EF",
"p.	c #CCE6F0",
"q.	c #CFEBF5",
"r.	c #8C8F94",
"s.	c #B2B2B4",
"t.	c #E5E5E6",
"u.	c #E3E3E4",
"v.	c #EBECEE",
"w.	c #B7B9BB",
"x.	c #B8B9BB",
"y.	c #ECECEE",
"z.	c #E4E4E5",
"A.	c #E6E6E7",
"B.	c #B6B8BA",
"C.	c #85878A",
"D.	c #0C7DB5",
"E.	c #E3F0F7",
"F.	c #DBEDF4",
"G.	c #C7E2EE",
"H.	c #C8E3EE",
"I.	c #CAE5F1",
"J.	c #CEEBF7",
"K.	c #C8E2EF",
"L.	c #7A7B7D",
"M.	c #B3B5B8",
"N.	c #CACCCE",
"O.	c #A3A3A6",
"P.	c #868687",
"Q.	c #8D8B8D",
"R.	c #A7A6A8",
"S.	c #CBCCCE",
"T.	c #B4B6B9",
"U.	c #7D7F82",
"V.	c #CAE5EF",
"W.	c #C7E2ED",
"X.	c #C8E2EE",
"Y.	c #C8E3EF",
"Z.	c #CAE7F3",
"`.	c #96A0A6",
" +	c #767578",
".+	c #9A9B9E",
"++	c #CECFD1",
"@+	c #A3A4A8",
"#+	c #808082",
"$+	c #EFEAE6",
"%+	c #267EAB",
"&+	c #7A7E83",
"*+	c #A7A8AA",
"=+	c #CFD0D2",
"-+	c #9C9DA0",
";+	c #7C7E81",
">+	c #0C7CB5",
",+	c #CCE6EF",
"'+	c #CFE7F0",
")+	c #D0E8F1",
"!+	c #D0EDF7",
"~+	c #777474",
"{+	c #EAE9EB",
"]+	c #E5E6E8",
"^+	c #BFC2C4",
"/+	c #C8D4D9",
"(+	c #FDFFFF",
"_+	c #007EBD",
":+	c #87888A",
"<+	c #C1C3C4",
"[+	c #E6E7E9",
"}+	c #7C7E80",
"|+	c #1984B9",
"1+	c #0F7FB6",
"2+	c #0378B2",
"3+	c #0073B0",
"4+	c #0071AF",
"5+	c #0072AF",
"6+	c #0072B0",
"7+	c #0076B6",
"8+	c #767171",
"9+	c #D3D2D4",
"0+	c #CACBCD",
"a+	c #C4C5C8",
"b+	c #848587",
"c+	c #D8DBDD",
"d+	c #DAF1FD",
"e+	c #017BB7",
"f+	c #8B8C8D",
"g+	c #C5C6C9",
"h+	c #CBCCCD",
"i+	c #D5D5D7",
"j+	c #797B7D",
"k+	c #117FB6",
"l+	c #A7A7A9",
"m+	c #6D6E70",
"n+	c #CBCDCF",
"o+	c #AEAFB1",
"p+	c #797779",
"q+	c #7EAAC2",
"r+	c #2B7297",
"s+	c #767373",
"t+	c #B1B2B4",
"u+	c #CCCED0",
"v+	c #8C8E91",
"w+	c #74767A",
"x+	c #6D6F71",
"y+	c #1173A3",
"z+	c #A1CCE2",
"A+	c #EEF7FA",
"B+	c #E5F3F8",
"C+	c #E3F2F7",
"D+	c #E5F4FA",
"E+	c #ECFCFF",
"F+	c #A7C2D0",
"G+	c #6A6B6E",
"H+	c #CBCBCD",
"I+	c #D0D0D2",
"J+	c #888787",
"K+	c #838081",
"L+	c #B4B4B5",
"M+	c #D1D1D3",
"N+	c #6E7073",
"O+	c #1B85B9",
"P+	c #A9D3E5",
"Q+	c #D6EAF2",
"R+	c #D4E9F2",
"S+	c #D3E9F1",
"T+	c #D5EAF3",
"U+	c #848486",
"V+	c #A5A5A6",
"W+	c #D9DADD",
"X+	c #CFD1D3",
"Y+	c #D6D7DA",
"Z+	c #D5D5D8",
"`+	c #D5D6D9",
" @	c #D7D7DA",
".@	c #DADADE",
"+@	c #A7A9AB",
"@@	c #717375",
"#@	c #0D7EB6",
"$@	c #0D7DB6",
"%@	c #0A80BB",
"&@	c #4C768C",
"*@	c #9E9A9A",
"=@	c #67696B",
"-@	c #929395",
";@	c #DBDCDE",
">@	c #8A8B8D",
",@	c #9C9C9E",
"'@	c #686A6C",
")@	c #646161",
"!@	c #6A6B6D",
"~@	c #E9EAEC",
"{@	c #696B6D",
"]@	c #626466",
"^@	c #5F6162",
"                                                                ",
"                  . + @ # # # # # # # # # # # # # @ $ % &       ",
"                * = - - - - - - - - - - - - - - - - - ; > ,     ",
"                ' - - - - - - - - - - - - - - - - - - ) ! ~ {   ",
"              ] ^ - / ( ( ( ( ( ( ( ( ( ( ( ( _ : - < [ } | 1   ",
"              2 - 3 4 4 4 4 5 5 5 5 5 5 5 5 5 5 6 - 7 8 9 0 a   ",
"              b - c ; ; ; ; ; ; ; ; ; ; ; ; ; ; d - e           ",
"              f - g h h i i i i i i i i i i i i j - k           ",
"              l - m n n n n n n n n n n n n n o c - p           ",
"            q r - s s s s s s s s s s s s s s s t u v           ",
"            w x y z z z A A A A A A A A A A A A B C D           ",
"            E F h G G G G G G G H H H H H H H H - I J           ",
"            K - L M M M M M M M M M M M M M N N - O P           ",
"            Q - R R R R R R R R R R R R R R S T - U             ",
"            V - W W X X X X X X Y Y Y Z `  ...+.- @.            ",
"          #.$.- %.&.&.&.&.&.&.&.&.&.*.=.-.;.>.,.'.).            ",
"          !.~.{.].^.^.^.^.^.^.^.^./.(._.:.(.<.[.}.|.  1.2.      ",
"          3.4.5.6.7.7.7.7.7.7.7.8.9.0.a.b.c.d.e.f.g.h.i.j.k.    ",
"          l.8.m.n.o.o.o.o.o.o.o.p.q.r.s.t.u.v.w.x.y.z.A.B.C.    ",
"          D.E.F.G.H.H.H.H.H.H.H.I.J.K.L.M.N.O.P.Q.R.S.T.U.      ",
"          + - V.W.X.X.X.X.X.X.Y.Z.`. +.+++@+#+$+%+&+*+=+-+;+U.  ",
"          >+- ,+'+'+'+'+'+'+'+)+!+~+{+]+^+C./+(+_+  :+<+[+v.}+  ",
"  |+1+$ @ 2+3+4+5+5+5+5+5+5+5+6+7+8+9+0+a+b+c+d+e+  f+g+h+i+j+  ",
"  k+- - - - - - - - - - - - - - - l+m+2.n+o+p+q+r+s+t+u+v+w+x+  ",
"  y+z+A+B+F F F F F F F F F F C+D+E+F+G+H+I+t+J+K+L+M+S.N+      ",
"    O+P+Q+R+S+S+S+S+S+S+S+S+S+S+T+(.U+V+W+X+Y+Z+`+ @X+.@+@@@    ",
"      1 % #@$@$@$@$@$@$@$@$@$@$@#@%@&@*@+@=@-@;@;@>@=@+@,@'@    ",
"                                      )@!@  =@~@~@=@  {@]@      ",
"                                            ^@=@=@^@            ",
"                                                                ",
"                                                                ",
"                                                                "};
